Coordinates
version=1
nRows=49
nColumns=12
inDegrees=yes

Units are S.I. units (second, meters, Newtons, ...)
Angles are in degrees

endheader
time	SC_y	SC_z	SC_x	AC_y	AC_z	AC_x	GH_y	GH_z	GH_yy	EL_x	PS_y
       0.0              -35.57          37.45          25.16          45.89         -7.259         -18.64         -156.9          5.096          104.8          106.7          124.4
    0.0186              -35.57          37.45          25.16           45.9         -7.261         -18.63         -156.9          5.103          104.8          106.7          124.4
    0.0372              -35.57          37.45          25.16           45.9         -7.262         -18.63         -156.8          5.109          104.8          106.7          124.4
    0.0558              -35.58          37.45          25.15           45.9         -7.264         -18.63         -156.8          5.117          104.8          106.7          124.4
    0.0744              -35.58          37.45          25.15           45.9         -7.266         -18.62         -156.8          5.124          104.7          106.7          124.4
     0.093              -35.58          37.45          25.15          45.91         -7.268         -18.62         -156.8          5.132          104.7          106.6          124.4
    0.1116              -35.58          37.45          25.15          45.91          -7.27         -18.61         -156.8          5.141          104.7          106.6          124.4
    0.1302              -35.58          37.45          25.15          45.91         -7.273          -18.6         -156.8           5.15          104.7          106.6          124.4
    0.1488              -35.59          37.45          25.15          45.91         -7.275          -18.6         -156.7           5.16          104.7          106.6          124.4
    0.1674              -35.59          37.45          25.15          45.92         -7.278         -18.59         -156.7          5.171          104.6          106.6          124.3
     0.186              -35.59          37.45          25.15          45.92         -7.281         -18.58         -156.7          5.182          104.6          106.5          124.3
    0.2046              -35.59          37.45          25.14          45.93         -7.284         -18.58         -156.7          5.195          104.6          106.5          124.3
    0.2232               -35.6          37.45          25.14          45.93         -7.287         -18.57         -156.7          5.208          104.5          106.5          124.3
    0.2418               -35.6          37.45          25.14          45.93          -7.29         -18.56         -156.6          5.222          104.5          106.4          124.3
    0.2604               -35.6          37.45          25.14          45.94         -7.294         -18.55         -156.6          5.238          104.5          106.4          124.3
     0.279              -35.61          37.45          25.14          45.95         -7.298         -18.54         -156.6          5.255          104.4          106.4          124.3
    0.2976              -35.61          37.45          25.13          45.95         -7.303         -18.52         -156.5          5.273          104.4          106.3          124.3
    0.3162              -35.62          37.45          25.13          45.96         -7.308         -18.51         -156.5          5.293          104.3          106.3          124.3
    0.3348              -35.62          37.45          25.13          45.96         -7.313          -18.5         -156.4          5.315          104.3          106.2          124.3
    0.3534              -35.63          37.45          25.13          45.97         -7.319         -18.48         -156.4          5.339          104.2          106.2          124.2
     0.372              -35.63          37.44          25.12          45.98         -7.326         -18.46         -156.4          5.365          104.2          106.1          124.2
    0.3906              -35.64          37.44          25.12          45.99         -7.333         -18.45         -156.3          5.394          104.1          106.1          124.2
    0.4092              -35.65          37.44          25.12           46.0         -7.341         -18.43         -156.2          5.426          104.0          106.0          124.2
    0.4278              -35.66          37.44          25.11          46.01         -7.349          -18.4         -156.2          5.461          103.9          105.9          124.2
    0.4464              -35.66          37.44          25.11          46.02         -7.359         -18.38         -156.1            5.5          103.8          105.8          124.1
     0.465              -35.67          37.44           25.1          46.04          -7.37         -18.35         -156.0          5.544          103.7          105.7          124.1
    0.4836              -35.69          37.44          25.09          46.05         -7.382         -18.32         -155.9          5.593          103.6          105.6          124.1
    0.5022               -35.7          37.44          25.09          46.07         -7.395         -18.28         -155.8          5.648          103.5          105.5          124.1
    0.5208              -35.71          37.43          25.08          46.09         -7.411         -18.24         -155.7          5.711          103.3          105.4          124.0
    0.5394              -35.73          37.43          25.07          46.12         -7.428          -18.2         -155.6          5.781          103.1          105.2          124.0
     0.558              -35.75          37.43          25.06          46.14         -7.448         -18.14         -155.4          5.862          102.9          105.0          123.9
    0.5766              -35.77          37.43          25.05          46.17         -7.471         -18.08         -155.2          5.955          102.7          104.8          123.9
    0.5952              -35.79          37.42          25.03          46.21         -7.498         -18.01         -155.0          6.062          102.4          104.6          123.8
    0.6138              -35.82          37.42          25.02          46.25         -7.528         -17.93         -154.8          6.186          102.1          104.3          123.7
    0.6324              -35.86          37.41           25.0          46.29         -7.564         -17.84         -154.5          6.332          101.8          104.0          123.6
     0.651              -35.89          37.41          24.98          46.35         -7.607         -17.73         -154.2          6.503          101.4          103.6          123.5
    0.6696              -35.94           37.4          24.95          46.41         -7.657          -17.6         -153.8          6.707          100.9          103.2          123.4
    0.6882               -36.0          37.39          24.92          46.49         -7.717         -17.44         -153.3          6.951          100.3          102.6          123.2
    0.7068              -36.07          37.38          24.88          46.59          -7.79         -17.25         -152.8          7.247          99.53          102.0          123.1
    0.7254              -36.15          37.37          24.84           46.7         -7.879         -17.01         -152.1          7.608          98.64          101.2          122.8
     0.744              -36.25          37.36          24.78          46.85         -7.989         -16.72         -151.2          8.054          97.54          100.2          122.6
    0.7626              -36.38          37.34          24.71          47.03         -8.127         -16.36         -150.1           8.61          96.18          98.96          122.2
    0.7812              -36.54          37.32          24.62          47.25           -8.3         -15.91         -148.8           9.31          94.46          97.41          121.8
    0.7998              -36.74          37.29          24.51          47.54         -8.519         -15.33         -147.1           10.2          92.27          95.44          121.2
    0.8184              -37.01          37.25          24.36          47.91         -8.801         -14.59         -144.9          11.34          89.47          92.93          120.5
     0.837              -37.34          37.21          24.18          48.38         -9.162         -13.65         -142.1           12.8          85.87           89.7          119.6
    0.8556              -37.77          37.15          23.94          48.98         -9.623         -12.44         -138.6          14.67          81.28          85.57          118.5
    0.8742              -38.31          37.07          23.64          49.73          -10.2         -10.92         -134.1          17.02          75.51          80.38          117.0
    0.8928              -38.97          36.98          23.28          50.66         -10.91         -9.061         -128.6          19.88          68.47          74.06          115.3
